<svg version="1.2" xmlns="http://www.w3.org/2000/svg" viewBox="0 0 1552 1552" width="1552" height="1552">
	<title>679cd9520edc5e8eea7c0f76_domo-svg</title>
	<style>
		.s0 { fill: #99ccee } 
		.s1 { fill: #ffffff } 
	</style>
	<g id="Layer_1">
		<g>
			<path fill-rule="evenodd" class="s0" d="m1552 0v1552h-1552v-1552z"/>
			<path class="s1" d="m292 913.4c24-26.8 41.1-60 48.5-96.6 19.1 94.6 102.8 165.9 203.1 165.9 100.4 0 184-71.3 203.2-166v166h68.7v-247.8l138.5 138.5 138-138.5v247.8h69.9v-166c19.1 94.7 102.8 166 203.1 166 82.4 0 153.6-48.1 187-117.8v-178.8c-33.4-69.7-104.6-117.9-187-117.9-100.3 0-184 71.3-203.1 166v-166l-207.9 207.3-207.2-207.3v166c-19.2-94.7-102.8-166-203.2-166-100.3 0-183.9 71.3-203.1 166-7.4-36.7-24.5-69.8-48.5-96.7-37.9-42.5-93.1-69.3-154.6-69.3h-137.4v414.5h137.4c61.5 0 116.7-26.7 154.6-69.3zm1073-276.2c76.4 0 138.3 61.9 138.3 138.3 0 76.4-61.9 138.3-138.3 138.3-76.4 0-138.3-61.9-138.3-138.3 0-76.4 61.9-138.3 138.3-138.3zm-821.4 0c76.4 0 138.3 61.9 138.3 138.3 0 76.4-61.9 138.3-138.3 138.3-76.3 0-138.3-61.9-138.3-138.3 0-76.4 62-138.3 138.3-138.3zm-474.9 0.3h77.7c72.2 4.7 129.3 64.7 129.3 138 0 73.3-57.1 133.3-129.3 137.9h-77.7z"/>
		</g>
	</g>
</svg>