<?xml version="1.0" encoding="iso-8859-1"?>
<!-- Uploaded to: SVG Repo, www.svgrepo.com, Generator: SVG Repo Mixer Tools -->
<svg fill="#000000" height="800px" width="800px" version="1.1" id="Layer_1" xmlns="http://www.w3.org/2000/svg" xmlns:xlink="http://www.w3.org/1999/xlink" 
	 viewBox="0 0 512 512" xml:space="preserve">
<g>
	<g>
		<g>
			<path d="M346.663,272.382v39.011c0,5.892,4.776,10.669,10.669,10.669s10.669-4.776,10.669-10.669v-39.009
				c6.366-3.697,10.669-10.573,10.669-18.451c0-11.762-9.572-21.331-21.337-21.331c-11.764,0-21.335,9.569-21.335,21.331
				C335.997,261.809,340.297,268.685,346.663,272.382z"/>
			<path d="M511.999,96.001V10.669C511.999,4.777,507.222,0,501.33,0H10.67C4.777,0,0.001,4.777,0.001,10.669v85.332
				c0,5.284,3.846,9.661,8.889,10.509v341.649c-5.043,0.848-8.889,5.223-8.889,10.509v42.664C0.001,507.223,4.777,512,10.67,512
				H501.33c5.891,0,10.669-4.777,10.669-10.669v-42.664c0-5.284-3.846-9.66-8.889-10.509V106.51
				C508.153,105.661,511.999,101.286,511.999,96.001z M490.662,490.663H21.338v-21.327h469.323V490.663z M76.446,288v159.999H30.228
				V288H76.446z M30.228,266.662V106.67h46.219v159.993H30.228z M143.998,288v159.999H97.784V288H143.998z M97.784,266.662V106.67
				h46.216v159.993H97.784z M211.555,288v159.999h-46.219V288H211.555z M165.337,266.662V106.67h46.219v159.993H165.337z
				 M279.107,288v69.331v90.667h-46.215V288H279.107z M232.893,266.661V106.67h46.215v90.662v69.329H232.893z M414.217,208.002
				v138.662H300.445v-0.001V208.002H414.217z M300.445,186.663V106.67h46.219v79.994H300.445z M414.217,186.663h-46.216V106.67
				h46.216V186.663z M414.219,368.001v79.998h-46.218v-79.998H414.219z M346.663,368.001v79.998h-46.219v-79.998H346.663z
				 M481.772,288.001v159.998h-46.216v-90.667c0-0.015-0.002-0.027-0.002-0.042v-69.29H481.772z M435.555,266.662v-69.329v-90.662
				h46.218v159.992H435.555z M490.662,85.332H21.338V21.337h469.323V85.332z"/>
			<path d="M87.565,64.001h57.771c5.892,0,10.669-4.776,10.669-10.669c0-5.89-4.776-10.669-10.669-10.669H87.565
				c-5.891,0-10.669,4.779-10.669,10.669C76.897,59.225,81.674,64.001,87.565,64.001z"/>
			<path d="M56.668,64.006h0.254c5.892,0,10.669-4.776,10.669-10.669c0-5.89-4.775-10.669-10.669-10.669h-0.254
				c-5.892,0-10.669,4.779-10.669,10.669C45.999,59.229,50.775,64.006,56.668,64.006z"/>
		</g>
	</g>
</g>
</svg>